<?xml version="1.0" standalone="no"?>
<!DOCTYPE svg PUBLIC "-//W3C//DTD SVG 20010904//EN"
 "http://www.w3.org/TR/2001/REC-SVG-20010904/DTD/svg10.dtd">
<svg version="1.0" xmlns="http://www.w3.org/2000/svg"
 width="700.000000pt" height="700.000000pt" viewBox="0 0 700.000000 700.000000"
 preserveAspectRatio="xMidYMid meet">
<metadata>
Created by potrace 1.14, written by Peter Selinger 2001-2017
</metadata>
<g transform="translate(0.000000,700.000000) scale(0.100000,-0.100000)"
fill="#000000" stroke="none">
<path d="M3397 6974 c-1 -1 -56 -4 -122 -8 -66 -3 -134 -8 -150 -10 -17 -3
-53 -7 -80 -10 -28 -3 -75 -10 -105 -16 -30 -5 -71 -12 -90 -15 -92 -15 -370
-86 -415 -105 -11 -5 -38 -14 -60 -20 -22 -6 -49 -15 -60 -20 -11 -4 -74 -29
-140 -56 -109 -43 -304 -137 -380 -181 -186 -110 -362 -228 -470 -317 -27 -23
-61 -50 -74 -61 -151 -124 -333 -312 -478 -492 -286 -359 -510 -797 -629
-1231 -34 -127 -78 -331 -89 -417 -4 -28 -8 -61 -10 -75 -2 -14 -7 -56 -11
-95 -3 -38 -8 -88 -10 -110 -5 -60 -5 -402 0 -470 8 -89 17 -184 21 -203 1 -9
6 -42 10 -72 8 -63 9 -67 31 -175 178 -887 695 -1669 1439 -2177 213 -146 383
-239 610 -336 183 -78 449 -163 610 -196 17 -3 53 -10 80 -16 28 -6 73 -13
100 -16 28 -4 53 -8 56 -10 4 -2 38 -7 75 -10 38 -3 72 -8 75 -10 10 -6 263
-18 364 -17 104 0 328 11 365 18 14 2 45 7 70 9 171 18 449 80 636 142 301
100 597 242 844 407 71 48 269 193 280 206 3 3 34 30 70 60 63 53 285 272 345
341 429 492 724 1124 819 1755 2 17 7 48 11 70 33 216 38 635 10 845 -2 19 -7
58 -10 85 -4 28 -8 57 -10 65 -2 8 -7 35 -10 60 -26 195 -126 533 -230 780
-36 86 -136 286 -169 338 -14 23 -26 44 -26 48 0 17 -201 307 -289 418 -100
125 -307 342 -411 431 -30 26 -67 58 -82 71 -46 40 -220 168 -298 221 -235
157 -539 305 -813 397 -158 53 -403 114 -527 132 -19 2 -44 7 -56 9 -11 2 -45
7 -75 11 -30 3 -65 7 -79 10 -58 9 -454 25 -463 18z m383 -228 c19 -3 62 -8
95 -11 91 -8 323 -52 448 -85 499 -129 999 -403 1372 -752 422 -394 706 -832
887 -1367 36 -107 100 -354 112 -431 3 -19 8 -44 10 -56 4 -18 8 -48 22 -154
27 -203 26 -558 -2 -800 -10 -93 -47 -279 -79 -405 -141 -546 -419 -1043 -810
-1445 -382 -393 -836 -678 -1340 -840 -55 -17 -107 -33 -115 -35 -8 -2 -49
-12 -90 -23 -78 -21 -206 -48 -275 -58 -22 -3 -51 -7 -65 -10 -28 -5 -96 -12
-220 -23 -99 -9 -435 -7 -530 3 -62 7 -148 18 -235 31 -422 62 -912 256 -1292
512 -226 152 -506 404 -680 613 -265 317 -469 685 -597 1075 -54 162 -78 260
-121 495 -1 8 -6 40 -10 70 -4 30 -9 64 -11 75 -23 122 -22 608 1 755 2 14 6
41 9 60 18 127 18 125 36 215 6 28 12 59 14 70 49 250 203 641 357 908 40 68
187 289 221 332 218 272 404 457 633 631 87 67 290 204 300 204 4 0 19 9 34
19 30 22 235 126 326 166 208 92 546 195 725 221 19 3 58 9 85 14 61 12 114
17 230 26 50 4 91 8 93 9 6 5 427 -3 462 -9z"/>
<path d="M1258 4192 l-96 -147 29 -33 c16 -18 30 -38 30 -45 1 -7 3 -210 4
-452 2 -242 5 -447 8 -455 2 -8 8 -28 12 -45 17 -61 71 -152 121 -202 89 -90
226 -142 355 -137 233 11 423 140 618 421 l44 63 60 -87 c244 -350 535 -471
847 -354 132 50 280 179 400 349 72 101 270 426 270 442 0 6 5 10 10 10 6 0
10 5 10 10 0 24 152 243 215 309 186 196 368 164 560 -99 26 -36 110 -171 187
-300 196 -327 267 -429 378 -541 152 -152 277 -213 463 -224 l47 -3 0 179 c0
136 -3 179 -12 180 -96 5 -171 41 -250 121 -78 78 -129 152 -298 433 -189 314
-262 417 -365 521 -119 120 -221 179 -359 207 -111 23 -227 12 -336 -32 -195
-80 -337 -232 -551 -591 -274 -459 -357 -568 -476 -627 -175 -85 -329 12 -531
337 l-64 102 47 76 c173 281 287 382 445 391 13 1 16 27 16 179 l0 179 -69 -4
c-96 -5 -211 -44 -298 -101 -165 -108 -280 -254 -509 -642 -95 -161 -208 -338
-234 -366 -113 -124 -180 -169 -266 -179 -35 -5 -52 -2 -78 15 -59 37 -60 42
-60 515 0 368 -2 440 -16 495 -28 108 -81 180 -196 267 -13 10 -31 -13 -112
-135z m1752 -52 c0 -89 0 -90 -27 -96 -69 -17 -160 -78 -236 -159 -43 -46
-154 -206 -217 -312 l-42 -73 73 -117 c66 -106 92 -145 139 -207 42 -55 128
-139 169 -166 122 -78 238 -84 363 -18 132 70 226 190 476 613 230 386 360
528 550 602 91 35 246 38 336 5 190 -69 327 -214 545 -575 39 -65 71 -120 71
-122 0 -7 140 -226 187 -295 90 -129 227 -241 323 -265 24 -6 25 -8 24 -93 -1
-48 -2 -90 -3 -94 0 -4 -15 -3 -31 2 -17 5 -31 9 -33 9 -33 -3 -143 50 -212
101 -131 98 -283 307 -472 647 -51 93 -191 299 -239 352 -237 264 -486 228
-723 -104 -48 -67 -257 -408 -270 -439 -9 -21 -117 -185 -166 -251 -168 -224
-339 -326 -541 -320 -218 6 -391 131 -580 418 l-91 137 -74 -112 c-205 -311
-370 -436 -588 -443 -177 -6 -314 82 -383 245 -22 54 -23 61 -25 500 -3 424
-9 520 -34 536 -7 4 66 129 92 158 10 11 39 -20 73 -74 47 -75 49 -98 51 -575
1 -448 1 -451 23 -494 42 -79 98 -113 189 -113 51 0 77 6 137 35 135 64 245
199 456 562 258 442 421 616 635 676 33 9 63 15 68 12 4 -2 7 -44 7 -93z"/>
</g>
</svg>
