<svg width="447" height="626" viewBox="0 0 447 626" fill="none" xmlns="http://www.w3.org/2000/svg">
<path fill-rule="evenodd" clip-rule="evenodd" d="M224 57L15.9148 57C6.74787 57 -0.475496 64.8095 0.237995 73.9492L33.4678 499.065C33.9667 505.449 38.2877 510.892 44.3919 512.828L219.248 568.265C220.794 568.755 222.397 569 224 569V476.11L103.596 437.937L96.5793 348.172H159.777V392.203L224 409.439V322.029H94.5356L81.1408 150.661H224V57ZM224 205.848H145.981L152.517 266.118H224V205.848Z" fill="#1f1f1f"/>
<path fill-rule="evenodd" clip-rule="evenodd" d="M224 569L397.147 520.623C403.158 518.943 407.501 513.718 408.052 507.501L446.552 73.3249C447.33 64.5521 440.418 57 431.611 57H224L224 151.208H365.824L360.768 207.688L355.616 265.576L340.064 439.112L224 471.208L224 569ZM224 412.415L287.136 395.4L295.744 316.968L224 317.164V412.415ZM224 262.318L300.512 261.416L304.736 204.008L224 204.232V262.318Z" fill="#2196F3"/>
<line x1="227.5" y1="3.5" x2="227.5" y2="622.5" stroke="black" stroke-width="7" stroke-linecap="round"/>
</svg>
