<svg
        width="810"
        height="810"
        viewBox="0 0 810 810"
        fill="none"
        xmlns="http://www.w3.org/2000/svg"
>
    <path
            d="M793.511 405C793.511 620.115 619.122 794.5 404.001 794.5C188.881 794.5 14.4914 620.115 14.4914 405C14.4914 189.885 188.881 15.5 404.001 15.5C619.122 15.5 793.511 189.885 793.511 405Z"
            stroke='#5D5D5D'
            stroke-width="25"
    />
    <path
            d="M605.044 396.942L605.047 396.946C618.095 419.351 628.132 434.794 635.173 443.161C646.318 456.407 657.805 463.576 669.671 464.133V495.484C650.168 495.055 632.383 486.242 616.269 468.841L616.26 468.831C606.336 458.307 593.667 439.646 578.245 412.703C565.439 390.31 555.508 374.985 548.473 366.837C537.095 353.019 525.238 345.814 512.873 345.814C500.63 345.814 488.827 353.023 477.453 366.837C470.399 374.986 460.468 390.312 447.68 412.704C432.258 439.629 419.589 458.307 409.666 468.831L409.661 468.837C393.005 486.689 374.719 495.5 354.754 495.5C335.03 495.5 316.926 486.694 300.394 468.841L300.387 468.834L300.38 468.827C293.769 461.869 285.999 451.253 277.049 436.903L275.791 434.885L274.512 436.89C265.436 451.115 257.587 461.743 250.982 468.838L250.98 468.84C234.429 486.694 216.324 495.5 196.618 495.5C188.15 495.5 179.966 493.348 172.032 489.033C164.148 484.745 157.98 478.591 153.512 470.575C149.028 462.528 146.79 454.141 146.79 445.43V356.131C146.79 349.614 144.905 344.578 140.872 341.368L158.1 315.108C171.442 324.592 178.081 337.732 178.081 354.686V445.448C178.081 448.69 178.888 451.807 180.5 454.782C182.136 457.802 184.457 460.125 187.474 461.764C190.42 463.374 193.48 464.186 196.618 464.186C208.967 464.186 220.77 456.979 232.04 443.161C239.094 435.011 249.024 419.686 261.811 397.296C277.232 370.371 289.954 351.697 299.999 341.176L300.007 341.168L300.015 341.159C316.127 323.759 333.858 314.948 353.218 314.517V345.849C341.388 346.408 329.973 353.58 318.934 366.842C312.876 374.026 304.631 386.384 294.214 403.88L293.761 404.641L294.209 405.406C304.727 423.36 313.1 435.98 319.296 443.16C330.548 456.98 342.352 464.186 354.718 464.186C367.064 464.186 379.068 456.982 390.681 443.161L390.682 443.16C397.721 434.776 407.758 419.352 420.807 396.946L420.809 396.942C436.231 370.251 448.777 351.691 458.476 341.159C475.008 323.306 493.112 314.5 512.837 314.5C532.671 314.5 550.847 323.308 567.376 341.158C577.058 351.69 589.623 370.251 605.044 396.942Z"
            stroke='#5D5D5D'
            stroke-width="10"
    />
</svg>

